HIERARCHY
ROOT pelvis
{
  OFFSET 0 100 0
  CHANNELS 6 Xposition Yposition Zposition Zrotation Xrotation Yrotation
  JOINT pelvis_right_femur
  {
    OFFSET -10.78128 -3.44521 -0.5502486
    CHANNELS 3 Zrotation Xrotation Yrotation
    JOINT right_femur_tibia
    {
      OFFSET -0.8047443 -44.0398 -0.1307829
      CHANNELS 3 Zrotation Xrotation Yrotation
      JOINT right_tibia_foot
      {
        OFFSET 3.006224 -47.83518 -5
        CHANNELS 3 Zrotation Xrotation Yrotation
        End Site
        {
          OFFSET 0 -5 15
        }
      }
    }
  }
  JOINT pelvis_left_femur
  {
    OFFSET 10.78128 -3.44521 -0.5502486
    CHANNELS 3 Zrotation Xrotation Yrotation
    JOINT left_femur_tibia
    {
      OFFSET 0.8047443 -44.0398 -0.1307829
      CHANNELS 3 Zrotation Xrotation Yrotation
      JOINT left_tibia_foot
      {
        OFFSET -4.370144 -48.10324 -4.275266
        CHANNELS 3 Zrotation Xrotation Yrotation
        End Site
        {
          OFFSET 0 -5 15
        }
      }
    }
  }
  JOINT pelvis_spine1
  {
    OFFSET 0 6.468898 -3.129235
    CHANNELS 3 Zrotation Xrotation Yrotation
    JOINT spine1
    {
      OFFSET 0 23.15396 4.99043
      CHANNELS 3 Zrotation Xrotation Yrotation
      JOINT spine2
      {
        OFFSET 0 20.79997 -5.064912
        CHANNELS 3 Zrotation Xrotation Yrotation
        JOINT neck
        {
          OFFSET 0 14.38658 9.616178
          CHANNELS 3 Zrotation Xrotation Yrotation
          End Site
          {
            OFFSET 0 20 0
          }
        }
      }
      JOINT right_manubrium
      {
        OFFSET -5.722621 16.35077 3.967754
        CHANNELS 3 Zrotation Xrotation Yrotation
        JOINT right_clavicle
        {
          OFFSET -13.16364 1.694482 -4.693211
          CHANNELS 3 Zrotation Xrotation Yrotation
          JOINT right_humerus
          {
            OFFSET -28.5034 -0.3100689 -2.792744
            CHANNELS 3 Zrotation Xrotation Yrotation
            JOINT right_radius
            {
              OFFSET -25.15693 0.02248979 -1.271978
              CHANNELS 3 Zrotation Xrotation Yrotation
              End Site
              {
                OFFSET -15 0 0
              }
            }
          }
        }
      }
      JOINT left_manubrium
      {
        OFFSET 5.722621 16.35077 3.967754
        CHANNELS 3 Zrotation Xrotation Yrotation
        JOINT left_clavicle
        {
          OFFSET 13.16364 1.694482 -4.693211
          CHANNELS 3 Zrotation Xrotation Yrotation
          JOINT left_humerus
          {
            OFFSET 29.39168 -1.063119 -2.237045
            CHANNELS 3 Zrotation Xrotation Yrotation
            JOINT left_radius
            {
              OFFSET 24.59957 -0.9528479 0.9047498
              CHANNELS 3 Zrotation Xrotation Yrotation
              End Site
              {
                OFFSET 15 -0 -0
              }
            }
          }
        }
      }
    }
  }
}
MOTION
Frames: 17
Frame Time: 0.0416666666667
0 103.5113 0 1.069165 -1.324004 -0.1050979 3.12777 -14.5009 10.841 -0 41.62435 -0 -5.75578 -16.35731 -3.86211 -6.855897 9.896013 -22.52015 -0 6.429087 -0 12.67165 -13.37283 29.17764 -4.281424 -4.355621 4.721743 2.841043 10.75659 -7.941488 1.19521 21.5383 6.834484 3.062436 -24.2726 9.400903 7.461697 -19.89278 12.1931 84.96776 37.44319 -18.1601 -0 0 15.66918 -8.269376 9.342061 4.710487 5.65643 -19.63941 -1.31082 -91.95937 20.90764 20.06265 0 0 -12.97649 13.456 14.77361 -2.448175
0.3307612 103.7745 1.74419 0.8928223 -1.001935 -0.1918809 3.278383 -16.11068 10.28845 -0 40.96471 -0 -6.054656 -15.05931 -3.662452 -6.741133 9.768243 -21.79817 -0 6.119249 -0 12.44945 -13.87719 28.35781 -4.168039 -4.080503 4.64991 2.843932 10.84977 -8.110808 1.07358 21.33204 7.010382 3.21484 -24.34132 9.305914 7.521365 -19.8325 12.25543 85.08602 37.73855 -18.41723 -0 0 15.47867 -8.913087 9.74594 4.994174 5.824823 -20.10634 -1.424751 -91.52113 20.54485 19.726 0 0 -13.77538 13.59103 14.58433 -2.437519
0.6565354 103.8328 3.53001 0.1967069 -0.145775 -0.3591027 4.568363 -19.4602 9.979476 -0 37.13774 -0 -6.136801 -15.25988 -3.235555 -6.393765 10.00019 -21.87527 -0 6.013857 -0 11.45731 -15.88872 27.9709 -3.603487 -3.626824 4.68246 3.001288 10.21823 -7.985118 1.389723 21.19295 6.834703 3.210981 -25.19193 9.601276 6.914791 -19.8485 11.95033 84.84333 36.3615 -18.07482 -0 0 16.16075 -7.794972 8.837262 4.464021 6.433082 -20.04688 -0.88397 -92.54962 21.13925 20.28909 0 0 -13.35304 13.75339 15.45169 -2.572617
0.9719893 103.7075 5.4692 -0.4002682 0.7440985 -0.5273916 5.688359 -22.86882 9.427038 -0 33.38553 -0 -6.393842 -14.48775 -2.736399 -6.082059 10.22099 -21.48302 -0 6.197524 -0 10.3928 -17.81087 27.10689 -3.135366 -3.155756 4.660959 3.125655 9.741954 -7.962315 1.587025 20.96656 6.760841 3.331177 -25.8652 9.726446 6.466483 -19.7444 11.71325 84.76109 35.43439 -18.01675 -0 0 16.49417 -7.225543 8.273875 4.135846 7.027657 -20.25904 -0.5058851 -93.13106 21.43039 20.50076 0 0 -13.47404 13.8791 16.05257 -2.662392
1.267387 103.4091 7.685885 -0.9026945 1.698701 -0.6485625 6.66643 -26.44887 8.633161 -0 29.20856 -0 -6.738098 -12.86091 -2.202713 -5.801676 10.57422 -20.67004 -0 6.696983 -0 8.978192 -19.83991 25.65932 -2.746607 -2.654176 4.583158 3.242753 9.337176 -8.047368 1.685684 20.65208 6.761273 3.55894 -26.40018 9.673449 6.105865 -19.51381 11.50169 84.84356 34.75448 -18.30226 -0 0 16.51353 -7.036748 7.932941 3.953509 7.617436 -20.68912 -0.2683911 -93.38618 21.75587 20.446 0 0 -14.23082 13.57728 16.43638 -2.259254
1.531775 102.9436 10.32367 -1.243381 2.62268 -0.6730345 7.348693 -29.88606 7.591192 -0 24.68053 -0 -7.093076 -10.4538 -1.685241 -5.580573 11.11796 -19.4478 -0 7.591816 -0 7.184261 -21.78163 23.61023 -2.473918 -2.164838 4.451004 3.339089 9.023902 -8.228768 1.681593 20.26119 6.833422 3.876483 -26.71949 9.433731 5.838662 -19.12943 11.31381 85.11024 34.31115 -18.94676 -0 0 16.14768 -7.279327 7.857696 3.928953 8.171751 -21.3021 -0.1996638 -93.21062 22.02534 20.00642 0 0 -15.62906 12.8721 16.47426 -1.431817
1.753614 102.3241 13.54743 -1.375045 3.415376 -0.5532286 7.60943 -32.80924 6.320155 -0 19.92587 -0 -7.350853 -7.393415 -1.269765 -5.439063 11.9104 -17.84702 -0 9.040971 -0 4.973644 -23.38855 20.96619 -2.333255 -1.73722 4.264654 3.405864 8.816159 -8.494334 1.578454 19.80928 6.969234 4.24781 -26.76492 9.018767 5.659952 -18.56802 11.14356 85.59428 34.06415 -19.96866 -0 0 15.32858 -7.987262 8.103529 4.081469 8.635085 -22.03124 -0.3201745 -92.5323 22.18133 19.10079 0 0 -17.63563 11.76408 16.04063 -0.2044965
1.923945 101.586 17.52657 -1.274944 3.943408 -0.2495255 7.375701 -34.69892 4.928058 -0 15.32028 -0 -7.372688 -3.966875 -1.088862 -5.381956 12.95528 -15.94872 -0 11.25547 -0 2.432007 -24.25911 17.86653 -2.308766 -1.438204 4.026456 3.432553 8.739234 -8.820099 1.387001 19.32948 7.154565 4.605667 -26.49143 8.477126 5.559324 -17.82961 10.99271 86.32195 33.95804 -21.33505 -0 0 14.01558 -9.182607 8.743733 4.442422 8.916491 -22.76323 -0.6430289 -91.31256 22.10572 17.69288 0 0 -20.09402 10.36925 15.01864 1.282367
2.040253 100.8093 22.39444 -0.9944839 4.074944 0.2561172 6.76156 -35.01364 3.690637 -0 11.51271 -0 -7.035847 -0.6996169 -1.298513 -5.362373 14.14546 -13.91687 -0 14.49635 -0 -0.1945405 -23.90087 14.64633 -2.308224 -1.330312 3.740943 3.413536 8.812428 -9.165434 1.131546 18.88083 7.360532 4.847515 -25.91575 7.906665 5.503725 -16.9674 10.87367 87.27701 33.88914 -22.9102 -0 0 12.27364 -10.80027 9.804548 5.032878 8.899115 -23.33079 -1.15305 -89.6546 21.69288 15.90885 0 0 -22.65059 8.905519 13.40554 2.810698
2.108226 100.1405 28.17375 -0.7130915 3.735786 0.9283683 6.150536 -33.45008 3.024679 -0 9.364158 -0 -6.37271 1.641683 -1.973237 -5.242061 15.17513 -12.01542 -0 19.03907 -0 -2.541435 -21.89292 11.80867 -2.126829 -1.42527 3.421079 3.352939 9.027527 -9.468992 0.8499244 18.55399 7.537234 4.858993 -25.16854 7.436987 5.429752 -16.1207 10.81698 88.34235 33.70385 -24.3956 -0 0 10.37822 -12.59246 11.15495 5.813606 8.479931 -23.5462 -1.784659 -87.91244 20.98123 14.1634 0 0 -24.71137 7.638374 11.452 4.168515
2.138113 99.7879 34.6885 -0.7337042 2.980427 1.62843 6.064053 -30.27706 3.20384 -0 9.590888 -0 -5.764239 2.293517 -2.92484 -4.809633 15.4796 -10.55737 -0 25.11635 -0 -4.353611 -18.18526 9.789646 -1.49002 -1.617613 3.110916 3.264527 9.32429 -9.650719 0.5839124 18.45873 7.618798 4.592872 -24.50637 7.152354 5.267237 -15.50879 10.87067 89.26175 33.26591 -25.34511 -0 0 8.86119 -14.06883 12.39933 6.613513 7.649052 -23.30276 -2.414983 -86.69371 20.32573 13.16775 0 0 -25.56224 6.731093 9.735504 5.318356
2.141176 99.95802 41.54078 -1.288743 2.011102 2.099856 6.78117 -26.34513 3.984557 -0 12.07338 -0 -5.878996 1.028458 -3.659191 -3.963441 14.31784 -9.744986 -0 32.84309 -0 -5.712548 -13.39982 8.666963 -0.2858506 -1.666959 2.93152 3.159698 9.594713 -9.619897 0.3683629 18.68159 7.552934 4.177164 -24.18886 6.989773 5.020059 -15.32592 11.07251 89.70949 32.6182 -25.36104 -0 0 8.305133 -14.65954 12.96474 7.1448 6.565913 -22.70262 -2.897689 -86.61661 20.33809 13.62063 0 0 -24.76641 6.088309 8.953778 6.491594
2.141166 100.7459 48.25628 -2.149978 1.058675 2.095504 7.900081 -22.37338 4.64241 -0 15.30265 -0 -7.019083 -1.43923 -3.725646 -2.994906 11.10654 -9.490451 -0 42.0825 -0 -6.889389 -8.79785 8.185042 1.074579 -1.330767 3.112294 3.02815 9.752866 -9.290445 0.2416245 19.22433 7.349714 3.905565 -24.21776 6.769425 4.853732 -15.55294 11.39622 89.48288 32.13036 -24.41307 -0 0 8.80881 -14.2527 12.58526 7.25977 5.530254 -22.04816 -3.12401 -87.83248 21.32926 15.58469 0 0 -22.67472 5.392583 9.34777 7.976357
2.184889 102.0603 54.54853 -2.519648 0.148902 1.601169 8.32475 -18.05137 4.574917 -0 16.95516 -0 -8.457355 -3.854118 -3.151989 -2.509097 5.840162 -9.459312 -0 52.0343 -0 -7.896158 -5.628392 8.153497 1.677454 -0.5996284 3.897285 2.830479 9.831669 -8.61588 0.2616562 19.97765 7.098229 3.989696 -24.21318 6.429082 5.010708 -15.91322 11.73756 88.62921 32.34804 -22.88053 -0 0 9.673556 -13.64716 11.85379 7.235997 4.802195 -21.59432 -3.06337 -89.61267 22.75444 18.06789 0 0 -20.41861 4.462686 10.26371 9.656582
2.298596 103.6368 60.41468 -1.780288 -0.930346 0.8891823 7.30743 -12.48261 3.893589 -0 15.69264 -0 -9.039863 -5.496806 -2.377325 -2.72166 -0.8749129 -9.289066 -0 60.5332 -0 -8.395657 -4.300241 8.71053 0.9558927 0.2729833 5.245634 2.514358 9.953128 -7.645756 0.4499447 20.783 6.897446 4.314814 -23.71767 6.124009 5.489624 -16.18684 11.9984 87.33047 33.43049 -21.05532 -0 0 10.14769 -14.0105 11.80467 7.586385 4.439574 -21.32365 -2.802166 -90.74801 23.64212 19.67399 0 0 -18.99527 3.552809 10.71356 10.92071
2.440996 105.1009 65.93962 -0.3626629 -2.234664 0.2857711 5.524105 -5.838249 3.164929 -0 12.26945 -0 -8.617804 -6.798846 -1.759802 -2.961858 -8.213034 -8.645971 -0 64.1998 -0 -8.163363 -4.304532 10.05503 -0.5106701 1.077298 6.620558 2.052146 10.13054 -6.544691 0.7007224 21.53515 6.760502 4.563009 -22.63592 5.960881 5.880971 -16.51949 12.16769 85.67034 34.79813 -18.68915 -0 0 10.52046 -15.70046 12.58043 8.58108 4.35903 -21.05372 -2.542245 -90.84594 23.58072 20.02253 0 0 -18.34922 3.034079 10.48926 11.29039
2.56315 106.0563 71.14206 0.6672429 -3.399817 -0.137754 4.342237 0.4645144 2.550761 -0 8.505211 -0 -8.10983 -8.736442 -1.280721 -2.271142 -15.36902 -7.285853 -0 60.5266 -0 -7.377675 -4.868159 12.05098 -1.573635 1.80459 7.370461 1.488834 10.17324 -5.522657 0.8416701 22.19621 6.62527 4.534177 -21.26663 5.847182 5.72468 -17.20353 12.25598 83.62351 35.66292 -15.36345 -0 0 11.75255 -17.99253 13.24836 10.03846 4.490911 -20.65604 -2.409507 -90.60426 22.94995 19.91092 0 0 -17.66873 2.952046 10.21975 10.8936
